<svg xmlns="http://www.w3.org/2000/svg" viewBox="0 0 330 300" role="img" aria-label="Городской комбинат"><g stroke-linejoin="round"><path d="M40 168 170 98 295 165 170 235Z" fill="#242424"/><path d="m78 147 70-36 0 61-70 38Z" fill="#404040"/><path d="m148 111 77 36v64l-77-39Z" fill="#303030"/><path d="m78 147 70-36 77 36-77 38Z" fill="#b8b8b8"/><path d="m165 92 16-8 17 9v64l-17 9-16-9Z" fill="#585858"/><path d="m214 100 16-8 17 9v82l-17 9-16-9Z" fill="#787878"/><path d="m185 70 14-10 14 10-14 8Zm51 10 14-10 14 10-14 8Z" fill="#b8b8b8" opacity=".35"/><path d="m96 172 19-10v20l-19 10Zm34-18 12-6v20l-12 6Z" fill="#dedede"/><path d="m172 190 14 7v-20l-14-7Zm24 12 14 7v-20l-14-7Z" fill="#909090"/><path d="m58 185 111 61 122-68" fill="none" stroke="#aaa" stroke-width="2"/></g></svg>